<svg xmlns="http://www.w3.org/2000/svg" width="524" height="90" fill="none"><g fill="#29292B" clip-path="url(#a)"><path d="M144.531 74.99V15.66h14.168v59.33zm14.168-34.424h-4.538q.554-8.966 3.32-14.833 2.767-5.865 7.306-8.744Q169.324 14 175.191 14q5.535 0 9.63 2.436 4.206 2.324 6.531 7.084t2.324 11.954V74.99h-14.168V38.352q0-4.095-.996-6.863-.996-2.877-3.099-4.317-2.103-1.439-5.203-1.439-2.656 0-4.759 1.218-2.103 1.107-3.653 3.21-1.55 1.992-2.324 4.76-.775 2.655-.775 5.645m34.977 0h-6.53q.554-8.966 3.431-14.833 2.989-5.865 7.859-8.744Q203.306 14 209.505 14q5.645 0 9.962 2.436 4.428 2.324 6.752 7.084 2.435 4.76 2.435 11.954V74.99h-14.168V38.352q0-4.095-.996-6.863-.996-2.877-3.1-4.317-1.992-1.439-5.202-1.439-2.656 0-4.76 1.218-2.103 1.107-3.652 3.21-1.55 1.992-2.325 4.76-.774 2.655-.775 5.645m68.177 36.084q-8.856 0-15.275-3.763-6.309-3.764-9.741-10.737-3.43-7.084-3.431-16.714 0-10.072 3.431-17.046 3.542-7.084 9.962-10.737 6.42-3.652 15.054-3.652 8.744-.001 15.053 3.874 6.42 3.763 9.852 10.847 3.43 6.973 3.431 16.714 0 9.962-3.542 16.935-3.432 6.974-9.851 10.627-6.309 3.652-14.943 3.652m0-11.733q6.641 0 10.183-4.98 3.543-5.093 3.542-14.501 0-9.519-3.542-14.61-3.542-5.093-10.183-5.093-6.753 0-10.294 5.092-3.542 4.98-3.542 14.611 0 9.298 3.542 14.39 3.541 5.091 10.294 5.091m33.102 10.073V15.66h14.168v59.33zm14.168-34.424h-4.538q.553-8.966 3.431-14.833 2.878-5.865 7.637-8.744Q320.523 14 326.722 14q5.977 0 10.405 2.436 4.539 2.324 6.973 7.084 2.546 4.76 2.546 11.954V74.99h-14.168V38.352q0-4.095-1.217-6.863-1.107-2.877-3.432-4.317-2.324-1.439-5.977-1.439-2.879 0-5.313 1.218-2.325 1.107-3.985 3.21-1.66 1.992-2.546 4.76-.885 2.655-.885 5.645m58.771-5.424h-14.279q.996-6.642 4.317-11.29 3.432-4.76 8.966-7.306 5.645-2.545 13.172-2.545 8.192 0 13.725 2.988 5.646 2.989 8.413 8.302 2.766 5.313 2.767 12.176V60.49q0 5.423.443 8.855.553 3.32 1.328 5.645h-14.722q-.885-2.213-1.107-5.535a107 107 0 0 1-.221-6.862V37.466q0-5.756-2.878-8.744-2.767-2.989-8.634-2.989-5.091 0-7.858 2.657-2.767 2.546-3.432 6.752m24.684 3.763v8.745q-8.191 0-13.394.885-5.202.776-8.08 2.325t-4.095 3.542a8.74 8.74 0 0 0-1.107 4.317q0 3.43 2.546 5.423t6.752 1.993q4.316 0 7.858-2.103 3.543-2.102 5.535-5.756 2.103-3.653 2.103-8.08h5.424q-.443 7.083-2.767 12.175-2.214 4.981-5.756 8.191-3.432 3.1-7.638 4.539-4.206 1.55-8.412 1.55-5.866 0-10.405-1.882-4.428-1.993-6.973-5.756-2.546-3.874-2.546-9.52 0-6.087 3.321-10.404 3.431-4.428 10.294-6.752a50.2 50.2 0 0 1 12.618-2.768q6.53-.663 14.722-.664m71.733-2.213h-14.168q-.996-5.757-4.317-8.302-3.21-2.657-7.638-2.657-6.641 0-10.072 5.092-3.321 4.98-3.321 14.611 0 9.409 3.542 14.5 3.543 4.98 10.294 4.981 4.539 0 7.638-2.435 3.099-2.546 4.206-7.637h14.279q-1.993 11.18-9.187 16.492-7.196 5.313-17.268 5.313-8.744 0-15.054-3.763-6.198-3.874-9.629-10.848-3.432-6.973-3.432-16.603 0-10.072 3.432-17.046 3.43-7.084 9.74-10.737 6.309-3.652 14.832-3.652 6.753 0 12.287 2.545 5.645 2.546 9.298 7.638 3.653 4.98 4.538 12.508M494.71 76.65q-8.855 0-15.275-3.763-6.31-3.764-9.74-10.737-3.431-7.084-3.431-16.714 0-10.072 3.431-17.046 3.542-7.084 9.962-10.737 6.42-3.652 15.053-3.652 8.745-.001 15.054 3.874 6.42 3.763 9.851 10.847 3.432 6.973 3.432 16.714 0 9.962-3.542 16.935-3.432 6.974-9.852 10.627-6.309 3.652-14.943 3.652m0-11.733q6.642 0 10.184-4.98 3.542-5.093 3.542-14.501 0-9.519-3.542-14.61-3.542-5.093-10.184-5.093-6.751 0-10.294 5.092-3.542 4.98-3.542 14.611 0 9.298 3.542 14.39 3.543 5.091 10.294 5.091"/><path fill-rule="evenodd" d="M14 0C6.268 0 0 6.268 0 14v62c0 7.732 6.268 14 14 14h86c7.732 0 14-6.268 14-14V14c0-7.732-6.268-14-14-14zm4 10a8 8 0 1 0 0 16 8 8 0 0 0 0-16m14 8a8 8 0 1 1 16 0 8 8 0 0 1-16 0m30-8a8 8 0 1 0 0 16 8 8 0 0 0 0-16" clip-rule="evenodd"/></g><defs><clipPath id="a"><path fill="#fff" d="M0 0h524v90H0z"/></clipPath></defs></svg>