<svg xmlns="http://www.w3.org/2000/svg" width="76" height="16" fill="none"><g style="mix-blend-mode:difference"><mask id="a" width="76" height="16" x="0" y="0" maskUnits="userSpaceOnUse" style="mask-type:luminance"><path fill="#fff" d="M75.333 0H0v16h75.333z"/></mask><g fill="#fff" mask="url(#a)"><path d="M5.73 15.639q-2.313-.078-3.496-1.059-1.182-1.005-1.708-2.245A6.6 6.6 0 0 1 0 9.78Q0 8.439.5 7.2q.525-1.265 1.708-2.245 1.209-1.006 3.049-1.033h8.516q1.84.027 3.022 1.033 1.21.98 1.709 2.245.525 1.239.525 2.58 0 1.29-.525 2.555-.526 1.239-1.709 2.245-1.183.981-3.496 1.059zM5.152 7.38q-.5 0-.868.413a2.5 2.5 0 0 0-.552.93 3.5 3.5 0 0 0-.157 1.032q0 .54.157 1.083.184.517.552.93.368.387.868.412h8.726a1.25 1.25 0 0 0 .867-.412q.367-.413.526-.93.184-.54.184-1.083 0-.517-.184-1.033a2.2 2.2 0 0 0-.526-.929q-.367-.413-.867-.413zm33.59-1.96q0 .644-.526 1.083-.5.413-1.235.413H25.863q-.342 0-.552.129a1 1 0 0 0-.316.284q-.105.129-.105.232 0 .129.105.284.105.129.316.258.21.103.552.13h8.594q1.656.024 2.734.644 1.077.594 1.524 1.42.474.8.473 1.625 0 .801-.473 1.626-.473.8-1.55 1.42-1.052.593-2.708.593a5 5 0 0 1-.42.026H23.839q-.735 0-1.262-.413-.5-.438-.499-1.058 0-.645.526-1.084.498-.413 1.235-.413h10.829q.395.026.63-.103.264-.128.395-.284a.48.48 0 0 0 .131-.31q0-.076-.131-.258a.8.8 0 0 0-.395-.31q-.236-.128-.63-.154h-8.621q-1.526-.026-2.523-.62-1-.619-1.42-1.419c-.42-.8-.42-1.067-.42-1.6q0-.8.42-1.574.447-.8 1.42-1.368.998-.592 2.523-.645a5 5 0 0 1 .394-.026h10.54q.735 0 1.235.439.526.413.526 1.032ZM43.92 0q.708.026 1.208.516.5.465.526 1.161v12.646q-.158 1.548-1.735 1.677-.736 0-1.288-.464a1.6 1.6 0 0 1-.526-1.213V1.677q.027-.722.553-1.187.525-.49 1.261-.49Zm10.513 15.639q-2.313-.078-3.496-1.059-1.182-1.005-1.708-2.245a6.6 6.6 0 0 1-.526-2.555q0-1.341.5-2.58.526-1.265 1.708-2.245 1.209-1.006 3.049-1.033h8.516q1.84.027 3.022 1.033 1.21.98 1.709 2.245.525 1.239.525 2.58 0 1.29-.525 2.555-.525 1.239-1.709 2.245-1.182.981-3.496 1.059h-7.57Zm-.578-8.259q-.5 0-.868.413a2.5 2.5 0 0 0-.552.93 3.5 3.5 0 0 0-.157 1.032q0 .54.157 1.083.184.517.552.93.369.387.868.412h8.726a1.25 1.25 0 0 0 .867-.412q.367-.413.526-.93.184-.54.184-1.083 0-.517-.184-1.033a2.2 2.2 0 0 0-.526-.929q-.367-.413-.867-.413zM73.376 16c1.04 0 1.882-.853 1.882-1.905a1.893 1.893 0 0 0-1.882-1.905 1.893 1.893 0 0 0-1.88 1.905c0 1.052.842 1.905 1.88 1.905"/></g></g></svg>